HIERARCHY
ROOT Hips
{
  OFFSET 179.979 97.3047 303.174
  CHANNELS 6 Xposition Yposition Zposition Zrotation Xrotation Yrotation
  JOINT Spine
  {
    OFFSET 0.000859786 9.92346 -1.22733
    CHANNELS 3 Zrotation Xrotation Yrotation
    JOINT Spine1
    {
      OFFSET 0 11.732 0
      CHANNELS 3 Zrotation Xrotation Yrotation
      JOINT Spine2
      {
        OFFSET 0 13.4588 0
        CHANNELS 3 Zrotation Xrotation Yrotation
        JOINT Neck
        {
          OFFSET 2.54812e-05 15.0278 0.877907
          CHANNELS 3 Zrotation Xrotation Yrotation
          JOINT Head
          {
            OFFSET 0 10.3218 3.14243
            CHANNELS 3 Zrotation Xrotation Yrotation
            End Site
            {
              OFFSET 0 0 0
            }
          }
        }
        JOINT LeftShoulder
        {
          OFFSET 6.10582 9.10629 0.757062
          CHANNELS 3 Zrotation Xrotation Yrotation
          JOINT LeftArm
          {
            OFFSET 0 12.9223 0
            CHANNELS 3 Zrotation Xrotation Yrotation
            JOINT LeftForeArm
            {
              OFFSET 0 27.4047 0
              CHANNELS 3 Zrotation Xrotation Yrotation
              JOINT LeftHand
              {
                OFFSET -1.28204e-05 27.6145 0
                CHANNELS 3 Zrotation Xrotation Yrotation
                End Site
                {
                  OFFSET 0 0 0
                }
              }
            }
          }
        }
        JOINT RightShoulder
        {
          OFFSET -6.1057 9.10638 0.757076
          CHANNELS 3 Zrotation Xrotation Yrotation
          JOINT RightArm
          {
            OFFSET 0 12.9223 0
            CHANNELS 3 Zrotation Xrotation Yrotation
            JOINT RightForeArm
            {
              OFFSET 0 27.4047 0
              CHANNELS 3 Zrotation Xrotation Yrotation
              JOINT RightHand
              {
                OFFSET 1.28428e-05 27.6145 1.44975e-05
                CHANNELS 3 Zrotation Xrotation Yrotation
                End Site
                {
                  OFFSET 0 0 0
                }
              }
            }
          }
        }
      }
    }
  }
  JOINT LeftUpLeg
  {
    OFFSET 9.12387 -6.65719 -0.0554031
    CHANNELS 3 Zrotation Xrotation Yrotation
    JOINT LeftLeg
    {
      OFFSET 0 40.5994 0
      CHANNELS 3 Zrotation Xrotation Yrotation
      JOINT LeftFoot
      {
        OFFSET 0 42.099 0
        CHANNELS 3 Zrotation Xrotation Yrotation
        JOINT LeftToeBase
        {
          OFFSET 0 15.7216 0
          CHANNELS 3 Zrotation Xrotation Yrotation
          End Site
          {
            OFFSET 0 0 0
          }
        }
      }
    }
  }
  JOINT RightUpLeg
  {
    OFFSET -9.12503 -6.6556 -0.0553527
    CHANNELS 3 Zrotation Xrotation Yrotation
    JOINT RightLeg
    {
      OFFSET 0 40.5994 0
      CHANNELS 3 Zrotation Xrotation Yrotation
      JOINT RightFoot
      {
        OFFSET 0 42.099 0
        CHANNELS 3 Zrotation Xrotation Yrotation
        JOINT RightToeBase
        {
          OFFSET 0 15.7216 0
          CHANNELS 3 Zrotation Xrotation Yrotation
          End Site
          {
            OFFSET 0 0 0
          }
        }
      }
    }
  }
}
MOTION
Frames:	6
Frame Time:	0.0333333
-271.538 99.325 320.45 2.23831 -7.68307 2.10034 -0.681974 -4.10644 0.0959488 -1.40721 5.69333 0.396984 -1.45411 12.2876 0.407968 -6.40749 1.7807 -4.06762 10.5713 -18.6041 -6.46588 -91.8245 -16.0164 90.1268 14.7248 13.0748 -9.79829 18.4056 -16.3772 -0.770636 -12.2853 -5.34767 20.5181 95.0075 -21.9237 -89.3009 -15.9565 13.8111 13.3651 -17.1024 -16.5637 0.793149 10.1109 -5.44491 -9.1991 -179.684 -8.89817 5.83089 -3.41292 -6.81495 -10.0492 18.0537 65.7699 -17.1565 -0.965279 26.367 -3.60229 173.831 -8.81344 -2.9468 5.25108 -9.61919 12.2489 -25.5104 70.6117 26.086 0.963531 26.3682 3.55537 
-271.536 99.325 320.45 2.23791 -7.68309 2.09731 -0.681974 -4.10644 0.0959488 -1.40721 5.69333 0.396984 -1.45411 12.2876 0.407968 -6.40492 1.7923 -4.06766 10.5719 -18.5985 -6.46567 -91.8245 -16.0111 90.1269 14.7173 13.0718 -9.79832 18.4034 -16.3874 -0.770677 -12.2947 -5.31152 20.5475 95.0073 -21.9175 -89.3013 -15.952 13.8116 13.3563 -17.0933 -16.5659 0.793158 10.0985 -5.42507 -9.22001 -179.683 -8.89573 5.84114 -3.41402 -6.81742 -10.057 18.0721 65.768 -17.1677 -0.965279 26.367 -3.60229 173.831 -8.81054 -2.94678 5.25108 -9.61919 12.2489 -25.5096 70.6112 26.0852 0.963531 26.3682 3.55537 
-271.52 99.325 320.448 2.23542 -7.67943 2.07967 -0.681974 -4.10644 0.0959488 -1.40192 5.69333 0.396982 -1.44856 12.2876 0.407327 -6.38615 1.82887 -4.06783 10.55 -18.5394 -6.46342 -91.8301 -15.9826 90.1257 14.68 13.0474 -9.79806 18.3811 -16.3817 -0.770654 -12.3269 -5.29229 20.5329 95.0065 -21.8768 -89.3042 -15.9194 13.8096 13.3043 -17.0431 -16.5837 0.793231 10.0076 -5.28829 -9.30317 -179.69 -8.7414 5.86902 -3.44149 -6.97195 -10.0923 18.1387 65.7615 -17.2064 -0.965279 26.367 -3.60229 173.831 -8.79705 -2.95353 5.25244 -9.61919 12.2489 -25.4962 70.6021 26.0726 0.963531 26.3682 3.55537 
-271.507 99.3249 320.442 2.22897 -7.67299 2.06065 -0.681974 -4.10644 0.0959488 -1.39661 5.69333 0.39698 -1.44296 12.2876 0.406678 -6.3665 1.84642 -4.06712 10.5061 -18.4686 -6.46074 -91.8372 -15.955 90.1241 14.6529 13.0167 -9.7973 18.3594 -16.3493 -0.770526 -12.3505 -5.35358 20.4525 95.0056 -21.8345 -89.3072 -15.8886 13.8041 13.2528 -16.9959 -16.5935 0.793272 9.89154 -5.1894 -9.34142 -179.698 -8.59426 5.88554 -3.45792 -7.1115 -10.1208 18.1806 65.7574 -17.2378 -0.965279 26.367 -3.60229 173.827 -8.77868 -2.98539 5.26288 -9.61897 12.256 -25.476 70.5884 26.0535 0.963531 26.3682 3.55537 
-271.497 99.3248 320.432 2.22372 -7.6641 2.04562 -0.681974 -4.10644 0.0959488 -1.39269 5.69333 0.396978 -1.43881 12.2877 0.406198 -6.3544 1.8665 -4.05809 10.4734 -18.4132 -6.4524 -91.8413 -15.9297 90.1231 14.631 12.9838 -9.79634 18.3441 -16.3364 -0.770475 -12.3439 -5.3481 20.4191 95.0079 -21.7868 -89.3138 -15.8606 13.7932 13.2124 -16.9576 -16.603 0.793311 9.78774 -5.13553 -9.37951 -179.706 -8.64079 5.88934 -3.44655 -7.05388 -10.1274 18.1993 65.7555 -17.254 -0.965279 26.367 -3.60229 173.824 -8.76443 -3.00205 5.26907 -9.62178 12.2666 -25.4677 70.5827 26.0457 0.963531 26.3682 3.55537 
-271.492 99.3247 320.421 2.21978 -7.65265 2.04119 -0.681974 -4.10644 0.0959488 -1.39076 5.69333 0.396978 -1.43797 12.2877 0.4061 -6.35099 1.90025 -4.03816 10.4585 -18.386 -6.43467 -91.8409 -15.9036 90.1234 14.6144 12.9483 -9.79515 18.3333 -16.3343 -0.770467 -12.3178 -5.31472 20.4301 95.0137 -21.7441 -89.3195 -15.8391 13.7775 13.1811 -16.9401 -16.6225 0.793391 9.73584 -5.11861 -9.43303 -179.71 -8.63395 5.86856 -3.43355 -7.04172 -10.1149 18.1762 65.7537 -17.2343 -0.965279 26.367 -3.60229 173.823 -8.73831 -3.00042 5.2685 -9.6311 12.2637 -25.4453 70.5813 26.0337 0.963531 26.3682 3.55537 
